<svg preserveAspectRatio="none" width="100%" height="100%" overflow="visible" style="display: block;" viewBox="0 0 13.125 9.75" fill="none" xmlns="http://www.w3.org/2000/svg">
<path id="Commet" fill-rule="evenodd" clip-rule="evenodd" d="M11.1631 4.58194C11.1599 4.58346 11.1582 4.58497 11.1556 4.58606L9.85184 5.12815L9.81208 5.14657L9.49443 6.62618C9.47316 6.67666 9.4098 6.68858 9.36707 6.64633L8.4173 5.5019L8.41262 5.49865L3.05719 7.84059C3.05251 7.84319 3.0472 7.84428 3.04209 7.84428C3.02211 7.84428 3.00616 7.82803 3.00616 7.80744C3.00616 7.79574 3.01169 7.78491 3.02062 7.77819L7.65081 4.24632L7.06505 2.88349C7.03571 2.82131 7.08971 2.75523 7.16136 2.77343H7.162L8.58059 3.12984L9.68217 2.13058V2.1308C9.73001 2.09288 9.79443 2.11996 9.80634 2.17976L9.91414 3.68126L11.1845 4.43851C11.239 4.47404 11.2311 4.55594 11.1631 4.58194ZM10.5157 0.291073C8.87215 -0.366075 7.06447 0.127273 5.94886 1.39065L1.59571 6.14257C1.53724 6.20649 1.56424 6.28665 1.63568 6.29749L2.7953 6.37007C2.88822 6.37592 2.8997 6.45717 2.85292 6.51307L0.0180813 9.62916C-0.0310336 9.68333 0.028287 9.76804 0.0958996 9.74659L4.1433 8.44335C4.22899 8.41345 4.2949 8.49101 4.25854 8.55905L3.71722 9.53448C3.68936 9.59016 3.74188 9.66643 3.80992 9.66123L9.64502 8.33675C11.0396 8.11185 12.2843 7.1635 12.8377 5.72766C13.6709 3.57248 12.6298 1.13867 10.5157 0.291073Z" fill="var(--fill-0, white)"/>
</svg>
